# xmcd
# 
# Track frame offsets:
#     150
#     26637
#     46087
#     77125
#     104887
#     130160
# 
# Disc length: 2160
# 
# Revision: 1
# Processed by: cddbd v1.5.2PL0 Copyright (c) Steve Scherf et al.
# Submitted via: BonkEnc v1.0.6
# 
DISCID=4a086e06
DTITLE=Chick Corea - The Song Of Singing
DYEAR=1970
DGENRE=Contemporary Jazz
TTITLE0=Toy Room
TTITLE1=Ballad I
TTITLE2=Rhymes
TTITLE3=Flesh
TTITLE4=Ballad III
TTITLE5=Nefertitti
EXTD=
EXTT0=
EXTT1=
EXTT2=
EXTT3=
EXTT4=
EXTT5=
PLAYORDER=
